<svg width="48" height="48" viewBox="0 0 48 48" fill="none" xmlns="http://www.w3.org/2000/svg">
<path d="M24 40C19.5333 40 15.75 38.45 12.65 35.35C9.55 32.25 8 28.4667 8 24C8 19.5333 9.55 15.75 12.65 12.65C15.75 9.55001 19.5333 8.00001 24 8.00001C26.3 8.00001 28.5 8.47467 30.6 9.42401C32.7 10.3733 34.5 11.732 36 13.5V10C36 9.43334 36.192 8.95867 36.576 8.57601C36.96 8.19334 37.4347 8.00134 38 8.00001C38.5653 7.99867 39.0407 8.19067 39.426 8.57601C39.8113 8.96134 40.0027 9.43601 40 10V20C40 20.5667 39.808 21.042 39.424 21.426C39.04 21.81 38.5653 22.0013 38 22H28C27.4333 22 26.9587 21.808 26.576 21.424C26.1933 21.04 26.0013 20.5653 26 20C25.9987 19.4347 26.1907 18.96 26.576 18.576C26.9613 18.192 27.436 18 28 18H34.4C33.3333 16.1333 31.8753 14.6667 30.026 13.6C28.1767 12.5333 26.168 12 24 12C20.6667 12 17.8333 13.1667 15.5 15.5C13.1667 17.8333 12 20.6667 12 24C12 27.3333 13.1667 30.1667 15.5 32.5C17.8333 34.8333 20.6667 36 24 36C26.2667 36 28.342 35.4253 30.226 34.276C32.11 33.1267 33.568 31.5847 34.6 29.65C34.8667 29.1833 35.242 28.8587 35.726 28.676C36.21 28.4933 36.7013 28.4847 37.2 28.65C37.7333 28.8167 38.1167 29.1667 38.35 29.7C38.5833 30.2333 38.5667 30.7333 38.3 31.2C36.9333 33.8667 34.9833 36 32.45 37.6C29.9167 39.2 27.1 40 24 40Z" fill="white"/>
</svg>
