<svg width="135" height="198" viewBox="0 0 135 198" fill="none" xmlns="http://www.w3.org/2000/svg">
<path fill-rule="evenodd" clip-rule="evenodd" d="M56.3087 19.551C55.9283 27.755 52.2815 34.927 46.8135 39.459C43.1381 42.507 38.6353 44.339 33.7949 44.339C14.4193 44.339 0.834961 57.5109 0.834961 73.8109C0.834961 74.2669 1.02044 74.7109 1.35803 75.0669L8.41888 82.431V89.595L3.5975 93.651C3.15055 94.027 2.90332 94.5349 2.90332 95.0629V103.767C2.90332 104.335 3.19333 104.879 3.69733 105.259L9.1083 109.303V116.147L3.10299 120.187C2.54193 120.567 2.21391 121.139 2.21391 121.747V131.027C2.21391 131.599 2.50391 132.143 3.00791 132.523L8.41888 136.567V143.031L3.50243 147.683C3.11729 148.047 2.90332 148.519 2.90332 149.011V157.131C2.90332 157.663 3.15055 158.171 3.5975 158.547L8.41888 162.599V170.103L1.70512 174.727C1.15357 175.103 0.834961 175.675 0.834961 176.275C0.834961 187.623 11.7852 196.835 25.2744 196.835H109.395C122.885 196.835 133.835 187.623 133.835 176.275C133.835 175.675 133.516 175.103 132.965 174.727L126.251 170.103V162.599L131.072 158.547C131.519 158.171 131.767 157.663 131.767 157.131V149.011C131.767 148.519 131.553 148.047 131.167 147.683L126.251 143.031V136.567L131.662 132.523C132.166 132.143 132.456 131.599 132.456 131.027V121.747C132.456 121.139 132.128 120.567 131.567 120.187L125.562 116.147V109.303L130.973 105.259C131.477 104.879 131.767 104.335 131.767 103.767V95.0629C131.767 94.5349 131.519 94.027 131.072 93.651L126.251 89.595V82.431L133.312 75.0669C133.649 74.7109 133.835 74.2669 133.835 73.8109C133.835 57.5109 120.251 44.339 100.87 44.339C96.0394 44.339 91.5318 42.507 87.8564 39.459C82.3885 34.927 78.7416 27.755 78.3612 19.551C80.962 18.727 82.8117 16.619 82.8117 14.147V6.60698C82.8117 3.41898 79.74 0.834961 75.9553 0.834961H58.7147C54.9299 0.834961 51.8582 3.41898 51.8582 6.60698V14.147C51.8582 16.619 53.7079 18.727 56.3087 19.551ZM73.6207 19.9149H61.0492C60.1933 35.9989 47.9165 48.335 33.7997 48.339C17.4053 48.339 5.97486 59.4109 5.59923 73.1149L12.6458 80.4669C12.9881 80.8229 13.1736 81.267 13.1736 81.723V88.423H30.4191L32.7965 90.423L30.4191 92.423H11.7804L7.65807 95.891V102.867L13.0643 106.911C13.573 107.291 13.863 107.835 13.863 108.407V117.107C13.863 117.715 13.5349 118.287 12.9691 118.667L6.96866 122.707V130.131L12.3748 134.175C12.8835 134.555 13.1736 135.099 13.1736 135.671V143.791C13.1736 144.279 12.9597 144.751 12.5745 145.119L7.65807 149.771V156.303L12.4747 160.359C12.9216 160.731 13.1736 161.243 13.1736 161.771V171.051C13.1736 171.651 12.8503 172.219 12.2987 172.599L5.61827 177.199C6.18884 185.911 14.7807 192.835 25.2744 192.835H109.395C119.889 192.835 128.481 185.911 129.052 177.199L122.371 172.599C121.82 172.219 121.496 171.651 121.496 171.051V161.771C121.496 161.243 121.748 160.731 122.195 160.359L127.012 156.303V149.771L122.1 145.119C121.71 144.751 121.496 144.279 121.496 143.791V135.671C121.496 135.099 121.786 134.555 122.295 134.175L127.701 130.131V122.707L121.701 118.667C121.135 118.287 120.807 117.715 120.807 117.107V108.407C120.807 107.835 121.097 107.291 121.606 106.911L127.012 102.867V95.891L122.195 91.839C121.748 91.463 121.496 90.955 121.496 90.423V81.723C121.496 81.267 121.682 80.8229 122.024 80.4669L129.071 73.1149C128.695 59.4109 117.265 48.339 100.87 48.339C86.7534 48.335 74.4766 35.9989 73.6207 19.9149ZM75.9553 15.9149H58.7147C57.5545 15.9149 56.613 15.123 56.613 14.147V6.60698C56.613 5.62698 57.5545 4.83496 58.7147 4.83496H75.9553C77.1154 4.83496 78.0569 5.62698 78.0569 6.60698V14.147C78.0569 15.123 77.1154 15.9149 75.9553 15.9149Z" stroke="#0EA5E9" stroke-width="1.67"/>
</svg>
