<svg width="16" height="16" viewBox="0 0 16 16" fill="none" xmlns="http://www.w3.org/2000/svg">
<path d="M3.33331 3.33324C3.33324 3.09863 3.39508 2.86816 3.51257 2.6651C3.63006 2.46204 3.79905 2.29357 4.00248 2.1767C4.20591 2.05984 4.43657 1.99872 4.67117 1.99952C4.90578 2.00032 5.13602 2.063 5.33865 2.18124L13.3366 6.84657C13.5385 6.96369 13.7061 7.13174 13.8226 7.33391C13.9392 7.53608 14.0006 7.7653 14.0008 7.99867C14.001 8.23203 13.94 8.46135 13.8238 8.66373C13.7076 8.8661 13.5403 9.03444 13.3386 9.15191L5.33865 13.8186C5.13602 13.9368 4.90578 13.9995 4.67117 14.0003C4.43657 14.0011 4.20591 13.94 4.00248 13.8231C3.79905 13.7062 3.63006 13.5378 3.51257 13.3347C3.39508 13.1316 3.33324 12.9012 3.33331 12.6666V3.33324Z" stroke="white" stroke-width="1.33333" stroke-linecap="round" stroke-linejoin="round"/>
</svg>
