<svg width="20" height="20" viewBox="0 0 20 20" fill="none" xmlns="http://www.w3.org/2000/svg">
<path d="M11.6666 15.0002V5.00016C11.6666 4.55814 11.491 4.13421 11.1785 3.82165C10.8659 3.50909 10.442 3.3335 9.99996 3.3335H3.33329C2.89127 3.3335 2.46734 3.50909 2.15478 3.82165C1.84222 4.13421 1.66663 4.55814 1.66663 5.00016V14.1668C1.66663 14.3878 1.75442 14.5998 1.9107 14.7561C2.06698 14.9124 2.27895 15.0002 2.49996 15.0002H4.16663" stroke="#0F766E" stroke-width="1.66667" stroke-linecap="round" stroke-linejoin="round"/>
<path d="M12.5 15H7.5" stroke="#0F766E" stroke-width="1.66667" stroke-linecap="round" stroke-linejoin="round"/>
<path d="M15.8333 14.9998H17.5C17.721 14.9998 17.9329 14.912 18.0892 14.7558C18.2455 14.5995 18.3333 14.3875 18.3333 14.1665V11.1248C18.333 10.9357 18.2683 10.7523 18.15 10.6048L15.25 6.97984C15.172 6.88224 15.0731 6.8034 14.9606 6.74917C14.8481 6.69493 14.7249 6.66668 14.6 6.6665H11.6666" stroke="#0F766E" stroke-width="1.66667" stroke-linecap="round" stroke-linejoin="round"/>
<path d="M14.1667 16.6668C15.0871 16.6668 15.8333 15.9206 15.8333 15.0002C15.8333 14.0797 15.0871 13.3335 14.1667 13.3335C13.2462 13.3335 12.5 14.0797 12.5 15.0002C12.5 15.9206 13.2462 16.6668 14.1667 16.6668Z" stroke="#0F766E" stroke-width="1.66667" stroke-linecap="round" stroke-linejoin="round"/>
<path d="M5.83329 16.6668C6.75377 16.6668 7.49996 15.9206 7.49996 15.0002C7.49996 14.0797 6.75377 13.3335 5.83329 13.3335C4.91282 13.3335 4.16663 14.0797 4.16663 15.0002C4.16663 15.9206 4.91282 16.6668 5.83329 16.6668Z" stroke="#0F766E" stroke-width="1.66667" stroke-linecap="round" stroke-linejoin="round"/>
</svg>
