<svg width="14" height="20" viewBox="0 0 14 20" fill="none" xmlns="http://www.w3.org/2000/svg">
<path fill-rule="evenodd" clip-rule="evenodd" d="M5.84016 2.52362C5.80584 3.26384 5.4768 3.91093 4.98345 4.31984C4.65183 4.59484 4.24556 4.76014 3.80884 4.76014C2.06066 4.76014 0.835007 5.94858 0.835007 7.41926C0.835007 7.4604 0.851742 7.50046 0.882201 7.53258L1.51927 8.19701V8.84338L1.08426 9.20934C1.04393 9.24327 1.02163 9.2891 1.02163 9.33674V10.1221C1.02163 10.1733 1.04779 10.2224 1.09327 10.2567L1.58147 10.6216V11.2391L1.03964 11.6036C0.989019 11.6379 0.959423 11.6895 0.959423 11.7443V12.5816C0.959423 12.6332 0.985589 12.6823 1.03106 12.7166L1.51927 13.0815V13.6647L1.07568 14.0844C1.04093 14.1172 1.02163 14.1598 1.02163 14.2042V14.9369C1.02163 14.9849 1.04393 15.0307 1.08426 15.0646L1.51927 15.4302V16.1073L0.913517 16.5245C0.863753 16.5584 0.835007 16.61 0.835007 16.6641C0.835007 17.688 1.823 18.5192 3.04007 18.5192H10.6299C11.847 18.5192 12.835 17.688 12.835 16.6641C12.835 16.61 12.8063 16.5584 12.7565 16.5245L12.1507 16.1073V15.4302L12.5858 15.0646C12.6261 15.0307 12.6484 14.9849 12.6484 14.9369V14.2042C12.6484 14.1598 12.6291 14.1172 12.5943 14.0844L12.1507 13.6647V13.0815L12.639 12.7166C12.6844 12.6823 12.7106 12.6332 12.7106 12.5816V11.7443C12.7106 11.6895 12.681 11.6379 12.6304 11.6036L12.0885 11.2391V10.6216L12.5767 10.2567C12.6222 10.2224 12.6484 10.1733 12.6484 10.1221V9.33674C12.6484 9.2891 12.6261 9.24327 12.5858 9.20934L12.1507 8.84338V8.19701L12.7878 7.53258C12.8183 7.50046 12.835 7.4604 12.835 7.41926C12.835 5.94858 11.6093 4.76014 9.86075 4.76014C9.42488 4.76014 9.01818 4.59484 8.68657 4.31984C8.19322 3.91093 7.86418 3.26384 7.82986 2.52362C8.06452 2.44928 8.2314 2.25908 8.2314 2.03604V1.35574C8.2314 1.06811 7.95426 0.834961 7.61278 0.834961H6.05723C5.71575 0.834961 5.43861 1.06811 5.43861 1.35574V2.03604C5.43861 2.25908 5.6055 2.44928 5.84016 2.52362ZM7.40214 2.55646H6.26787C6.19065 4.00765 5.08297 5.12068 3.80927 5.12104C2.33008 5.12104 1.29876 6.12001 1.26487 7.35646L1.90065 8.0198C1.93153 8.05192 1.94827 8.09198 1.94827 8.13313V8.73764H3.50425L3.71875 8.91809L3.50425 9.09854H1.82257L1.45063 9.41144V10.0409L1.9384 10.4057C1.98431 10.44 2.01047 10.4891 2.01047 10.5407V11.3257C2.01047 11.3805 1.98087 11.4321 1.92982 11.4664L1.38842 11.8309V12.5008L1.87619 12.8656C1.92209 12.8999 1.94827 12.949 1.94827 13.0006V13.7332C1.94827 13.7773 1.92896 13.8199 1.89422 13.8531L1.45063 14.2728V14.8622L1.88521 15.2281C1.92553 15.2617 1.94827 15.3079 1.94827 15.3555V16.1928C1.94827 16.2469 1.91909 16.2982 1.86933 16.3325L1.26658 16.7475C1.31806 17.5336 2.09327 18.1583 3.04007 18.1583H10.6299C11.5767 18.1583 12.352 17.5336 12.4034 16.7475L11.8007 16.3325C11.7509 16.2982 11.7217 16.2469 11.7217 16.1928V15.3555C11.7217 15.3079 11.7445 15.2617 11.7848 15.2281L12.2194 14.8622V14.2728L11.7762 13.8531C11.741 13.8199 11.7217 13.7773 11.7217 13.7332V13.0006C11.7217 12.949 11.7479 12.8999 11.7938 12.8656L12.2816 12.5008V11.8309L11.7402 11.4664C11.6891 11.4321 11.6595 11.3805 11.6595 11.3257V10.5407C11.6595 10.4891 11.6857 10.44 11.7316 10.4057L12.2194 10.0409V9.41144L11.7848 9.04585C11.7445 9.01193 11.7217 8.96609 11.7217 8.91809V8.13313C11.7217 8.09198 11.7385 8.05192 11.7694 8.0198L12.4051 7.35646C12.3713 6.12001 11.3399 5.12104 9.86075 5.12104C8.58704 5.12068 7.47936 4.00765 7.40214 2.55646ZM7.61278 2.19556H6.05723C5.95256 2.19556 5.86761 2.12411 5.86761 2.03604V1.35574C5.86761 1.26732 5.95256 1.19586 6.05723 1.19586H7.61278C7.71746 1.19586 7.8024 1.26732 7.8024 1.35574V2.03604C7.8024 2.12411 7.71746 2.19556 7.61278 2.19556Z" stroke="#0EA5E9" stroke-width="1.67"/>
</svg>
